<?xml version="1.0" encoding="UTF-8"?>
<svg xmlns="http://www.w3.org/2000/svg" viewBox="0 0 800 600">
  <!-- Background -->
  <rect width="800" height="600" fill="#f3f4f6" />
  
  <!-- Title -->
  <text x="400" y="40" font-family="Arial, sans-serif" font-size="24" text-anchor="middle" font-weight="bold" fill="#333">Housing Rental App UI Mockup</text>
  
  <!-- Phone 1 - Home/Map View -->
  <rect x="50" y="80" width="220" height="450" rx="20" ry="20" fill="#fff" stroke="#ddd" stroke-width="2" />
  <rect x="65" y="100" width="190" height="390" rx="5" ry="5" fill="#f8fafc" stroke="#e5e7eb" stroke-width="1" />
  
  <!-- Phone 1 - Status Bar -->
  <rect x="65" y="100" width="190" height="30" rx="5" ry="5" fill="#1e40af" />
  <text x="80" y="122" font-family="Arial, sans-serif" font-size="14" fill="#fff">12:30</text>
  <circle cx="235" cy="115" r="7" fill="#fff" />
  <circle cx="215" cy="115" r="7" fill="#fff" />
  
  <!-- Phone 1 - Search Bar -->
  <rect x="75" y="140" width="170" height="35" rx="17.5" ry="17.5" fill="#fff" stroke="#ddd" stroke-width="1" />
  <text x="100" y="164" font-family="Arial, sans-serif" font-size="12" fill="#6b7280">Search location...</text>
  <circle cx="85" cy="157.5" r="6" fill="none" stroke="#6b7280" stroke-width="1.5" />
  
  <!-- Phone 1 - Map View -->
  <rect x="75" y="185" width="170" height="180" rx="5" ry="5" fill="#dbeafe" />
  <path d="M75,185 L245,185 L245,365 L75,365 Z" fill="#dbeafe" />
  <path d="M95,205 Q115,195 125,210 Q135,220 150,205 Q170,190 185,210 Q195,220 215,205 Q235,190 245,210 L245,365 L75,365 L75,220 Q85,210 95,205 Z" fill="#bfdbfe" />
  <path d="M125,260 Q130,255 135,260 Q140,265 145,260 Q150,255 155,260 L155,280 L125,280 Z" fill="#f8fafc" stroke="#94a3b8" stroke-width="1" />
  <path d="M175,240 Q180,235 185,240 Q190,245 195,240 Q200,235 205,240 L205,260 L175,260 Z" fill="#f8fafc" stroke="#94a3b8" stroke-width="1" />
  <path d="M115,320 Q120,315 125,320 Q130,325 135,320 Q140,315 145,320 L145,340 L115,340 Z" fill="#f8fafc" stroke="#94a3b8" stroke-width="1" />
  <circle cx="160" cy="290" r="12" fill="#ef4444" stroke="#fff" stroke-width="2" />
  <circle cx="190" cy="250" r="12" fill="#ef4444" stroke="#fff" stroke-width="2" />
  <circle cx="130" cy="330" r="12" fill="#ef4444" stroke="#fff" stroke-width="2" />
  
  <!-- Phone 1 - Property List -->
  <rect x="75" y="375" width="170" height="105" rx="5" ry="5" fill="#fff" stroke="#ddd" stroke-width="1" />
  
  <!-- Phone 1 - Property 1 -->
  <rect x="85" y="385" width="150" height="35" rx="5" ry="5" fill="#f8fafc" />
  <rect x="85" y="385" width="35" height="35" rx="5" ry="5" fill="#dbeafe" />
  <text x="130" y="402" font-family="Arial, sans-serif" font-size="12" font-weight="bold" fill="#1e40af">3 Bed Duplex</text>
  <text x="130" y="415" font-family="Arial, sans-serif" font-size="10" fill="#6b7280">Lekki, Lagos</text>
  
  <!-- Phone 1 - Property 2 -->
  <rect x="85" y="430" width="150" height="35" rx="5" ry="5" fill="#f8fafc" />
  <rect x="85" y="430" width="35" height="35" rx="5" ry="5" fill="#dbeafe" />
  <text x="130" y="447" font-family="Arial, sans-serif" font-size="12" font-weight="bold" fill="#1e40af">2 Bed Flat</text>
  <text x="130" y="460" font-family="Arial, sans-serif" font-size="10" fill="#6b7280">Ikeja, Lagos</text>
  
  <!-- Phone 1 - Bottom Nav -->
  <rect x="65" y="490" width="190" height="40" rx="5" ry="5" fill="#fff" stroke="#e5e7eb" stroke-width="1" />
  <circle cx="95" cy="510" r="10" fill="#1e40af" />
  <circle cx="145" cy="510" r="10" fill="#d1d5db" />
  <circle cx="195" cy="510" r="10" fill="#d1d5db" />
  <text x="160" y="482" font-family="Arial, sans-serif" font-size="10" text-anchor="middle" fill="#6b7280">Home View</text>
  
  <!-- Phone 2 - Property Detail -->
  <rect x="290" y="80" width="220" height="450" rx="20" ry="20" fill="#fff" stroke="#ddd" stroke-width="2" />
  <rect x="305" y="100" width="190" height="390" rx="5" ry="5" fill="#f8fafc" stroke="#e5e7eb" stroke-width="1" />
  
  <!-- Phone 2 - Status Bar -->
  <rect x="305" y="100" width="190" height="30" rx="5" ry="5" fill="#1e40af" />
  <text x="320" y="122" font-family="Arial, sans-serif" font-size="14" fill="#fff">12:31</text>
  <circle cx="475" cy="115" r="7" fill="#fff" />
  <circle cx="455" cy="115" r="7" fill="#fff" />
  
  <!-- Phone 2 - Property Image -->
  <rect x="305" y="130" width="190" height="140" fill="#dbeafe" />
  <path d="M305,130 L495,130 L495,270 L305,270 Z" fill="#dbeafe" />
  <path d="M325,150 Q345,140 355,155 Q365,165 380,150 Q400,135 415,155 Q425,165 445,150 Q465,135 475,155 L475,270 L325,270 L325,165 Z" fill="#bfdbfe" />
  <rect x="315" y="245" width="170" height="20" fill="rgba(0,0,0,0.5)" />
  <text x="330" y="260" font-family="Arial, sans-serif" font-size="12" fill="#fff">1 of 6 images</text>
  <circle cx="450" cy="255" r="7" fill="#fff" />
  <circle cx="470" cy="255" r="7" fill="#fff" opacity="0.5" />
  
  <!-- Phone 2 - Property Detail Header -->
  <rect x="315" y="280" width="170" height="70" fill="#fff" />
  <text x="315" y="300" font-family="Arial, sans-serif" font-size="16" font-weight="bold" fill="#1e40af">3 Bedroom Duplex</text>
  <text x="315" y="320" font-family="Arial, sans-serif" font-size="14" fill="#6b7280">Lekki Phase 1, Lagos</text>
  <text x="315" y="340" font-family="Arial, sans-serif" font-size="16" font-weight="bold" fill="#111">₦2,500,000/year</text>
  
  <!-- Phone 2 - Property Attributes -->
  <rect x="315" y="360" width="170" height="50" rx="5" ry="5" fill="#f1f5f9" />
  <text x="330" y="385" font-family="Arial, sans-serif" font-size="10" fill="#6b7280">3 BEDS</text>
  <text x="380" y="385" font-family="Arial, sans-serif" font-size="10" fill="#6b7280">2 BATHS</text>
  <text x="430" y="385" font-family="Arial, sans-serif" font-size="10" fill="#6b7280">240 SQM</text>
  <line x1="365" y1="370" x2="365" y2="400" stroke="#ddd" stroke-width="1" />
  <line x1="415" y1="370" x2="415" y2="400" stroke="#ddd" stroke-width="1" />
  
  <!-- Phone 2 - Book Viewing Button -->
  <rect x="315" y="420" width="170" height="40" rx="5" ry="5" fill="#1e40af" />
  <text x="400" y="445" font-family="Arial, sans-serif" font-size="14" font-weight="bold" text-anchor="middle" fill="#fff">BOOK VIEWING</text>
  <text x="400" y="412" font-family="Arial, sans-serif" font-size="10" text-anchor="middle" fill="#6b7280">Property Details View</text>
  
  <!-- Phone 3 - Booking/Calendar View -->
  <rect x="530" y="80" width="220" height="450" rx="20" ry="20" fill="#fff" stroke="#ddd" stroke-width="2" />
  <rect x="545" y="100" width="190" height="390" rx="5" ry="5" fill="#f8fafc" stroke="#e5e7eb" stroke-width="1" />
  
  <!-- Phone 3 - Status Bar -->
  <rect x="545" y="100" width="190" height="30" rx="5" ry="5" fill="#1e40af" />
  <text x="560" y="122" font-family="Arial, sans-serif" font-size="14" fill="#fff">12:32</text>
  <circle cx="715" cy="115" r="7" fill="#fff" />
  <circle cx="695" cy="115" r="7" fill="#fff" />
  
  <!-- Phone 3 - Header -->
  <text x="560" y="155" font-family="Arial, sans-serif" font-size="16" font-weight="bold" fill="#1e40af">Schedule Viewing</text>
  <text x="560" y="175" font-family="Arial, sans-serif" font-size="12" fill="#6b7280">3 Bedroom Duplex, Lekki</text>
  
  <!-- Phone 3 - Calendar -->
  <rect x="555" y="185" width="170" height="170" rx="5" ry="5" fill="#fff" stroke="#ddd" stroke-width="1" />
  <line x1="555" y1="215" x2="725" y2="215" stroke="#ddd" stroke-width="1" />
  <text x="575" y="205" font-family="Arial, sans-serif" font-size="10" fill="#6b7280">Mon</text>
  <text x="605" y="205" font-family="Arial, sans-serif" font-size="10" fill="#6b7280">Tue</text>
  <text x="635" y="205" font-family="Arial, sans-serif" font-size="10" fill="#6b7280">Wed</text>
  <text x="665" y="205" font-family="Arial, sans-serif" font-size="10" fill="#6b7280">Thu</text>
  <text x="695" y="205" font-family="Arial, sans-serif" font-size="10" fill="#6b7280">Fri</text>
  
  <!-- Calendar Dates -->
  <text x="575" y="235" font-family="Arial, sans-serif" font-size="12" fill="#6b7280">1</text>
  <text x="605" y="235" font-family="Arial, sans-serif" font-size="12" fill="#6b7280">2</text>
  <text x="635" y="235" font-family="Arial, sans-serif" font-size="12" fill="#6b7280">3</text>
  <text x="635" y="235" font-family="Arial, sans-serif" font-size="12" fill="#6b7280">3</text>
</svg>